ModelForces
version=1
nRows=4
nColumns=155
inDegrees=no

This file contains the forces exerted on a model during a simulation.

A force is a generalized force, meaning that it can be either a force (N) or a torque (Nm).

Units are S.I. units (second, meters, Newtons, ...)
Angles are in degrees.

endheader
time	glut_med1_r	glut_med2_r	glut_med3_r	glut_min1_r	glut_min2_r	glut_min3_r	semimem_r	semiten_r	bifemlh_r	bifemsh_r	sar_r	add_long_r	add_brev_r	add_mag1_r	add_mag2_r	add_mag3_r	tfl_r	pect_r	grac_r	glut_max1_r	glut_max2_r	glut_max3_r	iliacus_r	psoas_r	quad_fem_r	gem_r	peri_r	rect_fem_r	vas_med_r	vas_int_r	vas_lat_r	med_gas_r	lat_gas_r	soleus_r	tib_post_r	flex_dig_r	flex_hal_r	tib_ant_r	per_brev_r	per_long_r	per_tert_r	ext_dig_r	ext_hal_r	glut_med1_l	glut_med2_l	glut_med3_l	glut_min1_l	glut_min2_l	glut_min3_l	semimem_l	semiten_l	bifemlh_l	bifemsh_l	sar_l	add_long_l	add_brev_l	add_mag1_l	add_mag2_l	add_mag3_l	tfl_l	pect_l	grac_l	glut_max1_l	glut_max2_l	glut_max3_l	iliacus_l	psoas_l	quad_fem_l	gem_l	peri_l	rect_fem_l	vas_med_l	vas_int_l	vas_lat_l	med_gas_l	lat_gas_l	soleus_l	tib_post_l	flex_dig_l	flex_hal_l	tib_ant_l	per_brev_l	per_long_l	per_tert_l	ext_dig_l	ext_hal_l	ercspn_r	ercspn_l	intobl_r	intobl_l	extobl_r	extobl_l	femur_lat_meniscii_r.femur_lat_r.force.X	femur_lat_meniscii_r.femur_lat_r.force.Y	femur_lat_meniscii_r.femur_lat_r.force.Z	femur_lat_meniscii_r.femur_lat_r.torque.X	femur_lat_meniscii_r.femur_lat_r.torque.Y	femur_lat_meniscii_r.femur_lat_r.torque.Z	femur_lat_meniscii_r.meniscus_lat_r.force.X	femur_lat_meniscii_r.meniscus_lat_r.force.Y	femur_lat_meniscii_r.meniscus_lat_r.force.Z	femur_lat_meniscii_r.meniscus_lat_r.torque.X	femur_lat_meniscii_r.meniscus_lat_r.torque.Y	femur_lat_meniscii_r.meniscus_lat_r.torque.Z	femur_med_meniscii_r.femur_med_r.force.X	femur_med_meniscii_r.femur_med_r.force.Y	femur_med_meniscii_r.femur_med_r.force.Z	femur_med_meniscii_r.femur_med_r.torque.X	femur_med_meniscii_r.femur_med_r.torque.Y	femur_med_meniscii_r.femur_med_r.torque.Z	femur_med_meniscii_r.meniscus_med_r.force.X	femur_med_meniscii_r.meniscus_med_r.force.Y	femur_med_meniscii_r.meniscus_med_r.force.Z	femur_med_meniscii_r.meniscus_med_r.torque.X	femur_med_meniscii_r.meniscus_med_r.torque.Y	femur_med_meniscii_r.meniscus_med_r.torque.Z	femur_med_tibia_r.tibia_upper_r.force.X	femur_med_tibia_r.tibia_upper_r.force.Y	femur_med_tibia_r.tibia_upper_r.force.Z	femur_med_tibia_r.tibia_upper_r.torque.X	femur_med_tibia_r.tibia_upper_r.torque.Y	femur_med_tibia_r.tibia_upper_r.torque.Z	femur_med_tibia_r.femur_med_r.force.X	femur_med_tibia_r.femur_med_r.force.Y	femur_med_tibia_r.femur_med_r.force.Z	femur_med_tibia_r.femur_med_r.torque.X	femur_med_tibia_r.femur_med_r.torque.Y	femur_med_tibia_r.femur_med_r.torque.Z	femur_lat_tibia_r.tibia_upper_r.force.X	femur_lat_tibia_r.tibia_upper_r.force.Y	femur_lat_tibia_r.tibia_upper_r.force.Z	femur_lat_tibia_r.tibia_upper_r.torque.X	femur_lat_tibia_r.tibia_upper_r.torque.Y	femur_lat_tibia_r.tibia_upper_r.torque.Z	femur_lat_tibia_r.femur_lat_r.force.X	femur_lat_tibia_r.femur_lat_r.force.Y	femur_lat_tibia_r.femur_lat_r.force.Z	femur_lat_tibia_r.femur_lat_r.torque.X	femur_lat_tibia_r.femur_lat_r.torque.Y	femur_lat_tibia_r.femur_lat_r.torque.Z	aACL_R	pACL_R	aPCL_R	pPCL_R	aMCL_R	mMCL_R	pMCL_R	aLCL_R	mLCL_R	pLCL_R	aPCL_L	pPCL_L	aMCL_L	aLCL_L
      0.20975494	      9.70844357	      7.14569306	      7.67099605	      3.32063563	      3.89732505	      4.10463435	      0.00000000	    163.72319776	    181.77804696	    341.16831179	    122.31131272	      7.09890231	      5.16103959	      3.67570878	      3.10710231	      5.16950200	      3.26936788	      2.79995719	     92.59515986	      4.61168705	      7.01288058	      5.25668322	     25.34336329	     16.01849482	      4.55135312	      3.29346101	      5.56913393	    114.05425685	     40.64616058	     31.85437530	     56.19150818	      0.00000000	      0.00000000	      0.00000000	      0.00000000	      0.00000000	      0.00000000	     35.29821273	      1.54876982	      3.49148062	     23.33592515	     49.19739919	     11.71866299	      9.70844357	      7.14569306	      7.67099605	      3.32063563	      3.89732505	      4.10463435	     10.58990429	      5.24045322	     10.25475265	      9.05744115	      1.89599617	      7.09890231	      5.16103959	      3.67570878	      3.10710231	      5.16950200	      4.82901265	      2.79995719	      1.95216547	      4.61168705	      7.01288058	      5.25668322	     25.34336329	     16.01849482	      4.55135312	      3.29346101	      5.56913393	     14.19235925	      0.00000000	      0.00000000	      0.00000000	     19.32144497	      9.02579935	     42.95399425	     47.26356825	      4.17180675	      3.63316825	     11.12081831	      5.88411841	     15.82217361	      2.47782938	      7.86770183	      2.52004216	     31.24557216	     31.24557216	     11.46704038	     11.46704038	     29.02366035	     29.02366035	    182.69498373	    110.39973507	      8.76358650	     -6.01558680	      4.23497574	     72.56018349	   -182.69498373	   -110.39973507	     -8.76358650	      2.84515452	     -4.94573387	      2.48780991	      0.04066265	      0.00122391	     -0.02550780	      0.01015810	     -0.00063251	      0.01616249	     -0.04066265	     -0.00122391	      0.02550780	     -0.00009485	      0.00121911	     -0.00009226	   -886.53754901	   -366.21164672	    314.66360401	     -8.25687625	     21.83548332	      2.32418422	    886.53754901	    366.21164672	   -314.66360401	    133.30595278	    -15.59591567	    357.25252791	   -289.05136080	   -129.27058894	    -77.81904367	      4.18484864	     -9.93480775	      0.96019482	    289.05136080	    129.27058894	     77.81904367	    -34.54134724	      7.07557149	    116.54577740	      0.71967002	      0.00000000	    963.70137955	    609.00055807	     24.19604492	     10.41502148	      0.00000000	      0.00000000	      0.00000000	      0.00000000	      0.00000000	      0.00000000	      0.00000001	      0.00000000
      0.20977510	      9.70787240	      7.14530280	      7.67057191	      3.32046191	      3.89713580	      4.10439289	      0.00000000	    163.73324301	    181.79825251	    341.18160805	    122.31114889	      7.09851003	      5.16077210	      3.67550948	      3.10692953	      5.16918870	      3.26925109	      2.79980970	     92.59694190	      4.61143466	      7.01249576	      5.25638986	     25.34264909	     16.01768251	      4.55110977	      3.29334392	      5.56882058	    114.08920584	     40.65012504	   5311.20571752	     56.19632837	      0.00000000	      0.00000000	      0.00000000	      0.00000000	      0.00000000	      0.00000000	     35.29813951	      1.54708147	      3.48942866	     23.33109847	     49.18808007	     11.71607212	      9.70787240	      7.14530280	      7.67057191	      3.32046191	      3.89713580	      4.10439289	     10.59022889	      5.24014678	     10.25408844	      9.05695641	      1.89589744	      7.09851003	      5.16077210	      3.67550948	      3.10692953	      5.16918870	      4.82881875	      2.79980970	      1.95206202	      4.61143466	      7.01249576	      5.25638986	     25.34264909	     16.01768251	      4.55110977	      3.29334392	      5.56882058	     14.19143593	      0.00000000	      0.00000000	      0.00000000	     19.32048150	      9.02532181	     42.95113856	     47.26231759	      4.17120474	      3.63263201	     11.12011754	      5.88371997	     15.82135290	      2.47770404	      7.86741803	      2.51995820	     31.24393378	     31.24393378	     11.46638785	     11.46638785	     29.02307207	     29.02307207	    172.57256837	    110.67969395	     11.38024532	     -7.08156105	      4.02696777	     68.45721456	   -172.57256837	   -110.67969395	    -11.38024532	      2.87988162	     -4.78261315	      2.60708929	      0.03775582	      0.00141946	     -0.02375558	      0.00946309	     -0.00058791	      0.01500457	     -0.03775582	     -0.00141946	      0.02375558	     -0.00009031	      0.00113453	     -0.00007532	   -882.74038256	   -370.90142819	    311.57272840	     -8.26468885	     21.67436921	      2.56097825	    882.74038256	    370.90142819	   -311.57272840	    132.10836882	    -15.50870323	    355.64967876	   -287.57885441	   -131.18964660	    -78.94129456	      4.24598271	     -9.94559351	      1.06130317	    287.57885441	    131.18964660	     78.94129456	    -35.04036383	      7.05940869	    115.91740187	     -0.07437238	      0.00000000	    965.97563787	    614.96118432	     26.28232309	     13.02132768	      0.00000000	      0.00000000	      0.00000000	      0.00000000	      0.00000000	      0.00000000	      0.00000001	      0.00000000
      0.20979527	      9.70730139	      7.14491263	      7.67014788	      3.32028823	      3.89694660	      4.10415149	      0.00000000	    163.72203720	    181.78981482	    341.07189086	    122.29642534	      7.09811785	      5.16050467	      3.67531024	      3.10675680	      5.16887547	      3.26956921	      2.79966225	     92.58487766	      4.61118234	      7.01211105	      5.25609658	     25.34193508	     16.01687042	      4.55086648	      3.29322686	      5.56850726	    114.10460626	     40.62785528	   1482.03443214	     56.16700910	      0.00000000	      0.00000000	      0.00000000	      0.00000000	      0.00000000	      0.00000000	     35.29965658	      1.54513218	      3.48706592	     23.32625703	     49.17933497	     11.71371587	      9.70730139	      7.14491263	      7.67014788	      3.32028823	      3.89694660	      4.10415149	     10.59055228	      5.23984042	     10.25342440	      9.05647180	      1.89579874	      7.09811785	      5.16050467	      3.67531024	      3.10675680	      5.16887547	      4.82862490	      2.79966225	      1.95195860	      4.61118234	      7.01211105	      5.25609658	     25.34193508	     16.01687042	      4.55086648	      3.29322686	      5.56850726	     14.19051285	      0.00000000	      0.00000000	      0.00000000	     19.31951805	      9.02484429	     42.94828348	     47.26106723	      4.17060285	      3.63209591	     11.11941696	      5.88332163	     15.82053238	      2.47757873	      7.86713421	      2.51987420	     31.24229583	     31.24229583	     11.46573550	     11.46573550	     29.02248395	     29.02248395	    146.49305317	    110.00107115	     17.32752186	     -9.47424197	      3.48153620	     57.90505962	   -146.49305317	   -110.00107115	    -17.32752186	      2.92520342	     -4.33105917	      2.85591352	      0.03020455	      0.00171399	     -0.01916567	      0.00764041	     -0.00047172	      0.01199855	     -0.03020455	     -0.00171399	      0.01916567	     -0.00007703	      0.00091341	     -0.00003938	   -871.76117029	   -382.51185413	    303.31909250	     -8.27891592	     21.23619758	      3.15741696	    871.76117029	    382.51185413	   -303.31909250	    128.89875928	    -15.26582977	    351.04195568	   -283.51968512	   -135.80106918	    -81.70301917	      4.39456120	     -9.96135847	      1.30851379	    283.51968512	    135.80106918	     81.70301917	    -36.26646142	      7.01050929	    114.19565829	     -2.06819053	      0.00000000	    971.68175619	    630.28187614	     31.74695089	     19.81885770	      0.00000000	      0.00000000	      0.00000000	      0.00000000	      0.00000000	      0.00000000	      0.00000001	      0.00000000
      0.20982859	      9.70635834	      7.14426827	      7.66944758	      3.32000140	      3.89663412	      4.10375282	      0.00000000	    163.68352773	    181.74845663	    340.77770174	    122.25893331	      7.09747015	      5.16006301	      3.67498117	      3.10647153	      5.16835817	      3.27052024	      2.79941872	     92.55223102	      4.61076562	      7.01147568	      5.25561222	     25.34075587	     16.01552922	      4.55046467	      3.29303353	      5.56798967	    114.12328034	     40.56691302	    231.54833051	     56.09062717	      0.00000000	      0.00000000	      0.00000000	      0.00000000	      0.00000000	      0.00000000	     35.30364812	      1.54166716	      3.48286465	     23.31823223	     49.16542191	     11.71004115	      9.70635834	      7.14426827	      7.66944758	      3.32000140	      3.89663412	      4.10375282	     10.59108392	      5.23933445	     10.25232767	      9.05567144	      1.89563573	      7.09747015	      5.16006301	      3.67498117	      3.10647153	      5.16835817	      4.82830475	      2.79941872	      1.95178779	      4.61076562	      7.01147568	      5.25561222	     25.34075587	     16.01552922	      4.55046467	      3.29303353	      5.56798967	     14.18898834	      0.00000000	      0.00000000	      0.00000000	     19.31792635	      9.02405544	     42.94356784	     47.25900216	      4.16960873	      3.63121055	     11.11825991	      5.88266374	     15.81917719	      2.47737177	      7.86666522	      2.51973538	     31.23959070	     31.23959070	     11.46465812	     11.46465812	     29.02151265	     29.02151265	    138.52640207	    109.52512035	     18.82156803	    -10.06818503	      3.31096372	     54.68458589	   -138.52640207	   -109.52512035	    -18.82156803	      2.92861169	     -4.18050761	      2.92253296	      0.02726001	      0.00172246	     -0.01734981	      0.00691817	     -0.00042619	      0.01082723	     -0.02726001	     -0.00172246	      0.01734981	     -0.00007084	      0.00082628	     -0.00002899	   -866.32540439	   -384.81082366	    300.34652673	     -8.26028124	     21.06112773	      3.32727516	    866.32540439	    384.81082366	   -300.34652673	    127.71567855	    -15.15700465	    348.79670974	   -281.84561208	   -136.74126639	    -82.68397116	      4.43025296	     -9.96183136	      1.37456283	    281.84561208	    136.74126639	     82.68397116	    -36.68701597	      6.98833318	    113.49687945	     -2.62400406	      0.00000000	    973.73426100	    635.15221131	     33.41528948	     21.88443182	      0.00000000	      0.00000000	      0.00000000	      0.00000000	      0.00000000	      0.00000000	      0.00000001	      0.00000000
